<svg width="1440" height="1024" viewBox="0 0 1440 1024" fill="none" xmlns="http://www.w3.org/2000/svg">
<rect width="1440" height="1024" fill="#E5E5E5"/>
<g id="Desktop - 1" clip-path="url(#clip0)">
<rect width="1440" height="1024" fill="#250E56"/>
<rect id="Rectangle 1" x="-89" y="-20" width="1683" height="1100" fill="#19114A"/>
<path id="Vector 22" d="M240.5 538C215.3 550 45.6667 694 -36 764.5L-174 1027C-48 1045.67 238.9 1085.2 378.5 1094C553 1105 762.5 1151.5 922 1165C1081.5 1178.5 1142 1171 1263.5 1165C1385 1159 1467 1135 1550.5 1083C1634 1031 1634 1007.5 1646 974C1658 940.5 1628 732.5 1588.5 662.5C1549 592.5 1514 603.5 1447 552C1380 500.5 1266.5 467 1172.5 429C1078.5 391 978 391 922 377.5C866 364 717 376 627.5 391C538 406 272 523 240.5 538Z" fill="#1F391E"/>
<g id="rocks2">
<path id="Vector 20" d="M669.32 745.543L689.56 732.467L713.32 707.266L698.8 693.002L668.44 702.274L664.92 703.463L658.98 707.98L653.92 714.636L647.98 741.501L669.32 745.543Z" fill="#B2B2B2"/>
<path id="Vector 21" d="M646.22 735.082L647.76 741.264L650.62 738.886L657.22 736.509L666.9 732.229L680.1 729.852L699.02 692.764L687.8 691.576L681.86 694.428L668 702.274L686.26 710.833L666.9 707.266L653.48 714.399L646.22 726.048V735.082Z" fill="#CCCCCC"/>
</g>
<path id="fire1" d="M689.265 733.02L709.338 762.297L749.044 792.051L842.353 803L902.574 754.204L913.162 705.409C914.853 702.076 918.235 695.221 918.235 694.46C918.235 693.698 919.412 688.271 920 685.653V672.799L918.235 668.277L916.691 663.992L912.059 670.657L906.324 672.799L908.529 668.277L910.074 661.85L908.529 653.995L902.574 641.618L897.059 628.526L895.956 621.623L897.059 614.482L900.147 611.15L904.559 608.532H899.265L891.324 613.292L885.809 616.387L888.897 611.15L890.662 604.723V596.154L889.559 588.776L884.926 579.016L880.074 573.066L873.235 569.019L876.103 571.638L878.088 576.16L878.971 580.207V590.204L876.103 599.011L873.235 601.867L874.779 597.106V591.394L873.235 585.919L870.368 581.397L865.515 577.826H857.794L850.074 576.16L849.412 573.066L850.074 553.548L849.412 548.787L846.985 545.217H844.779L842.132 546.645L839.926 547.835H835.074L830.221 546.645L828.015 544.503V541.408L830.221 536.172L832.206 530.697L831.544 526.174V527.603L830.221 531.649L828.015 537.6L824.485 542.122L819.412 547.835L821.397 543.074L822.279 537.6V530.697L821.397 524.984L818.309 519.272L814.779 514.511L810.809 510.941L805.294 507.608L802.206 504.038L799.338 499.753L798.015 493.565V487.614L796.471 493.565L792.941 498.801L788.309 501.896L785.662 502.61L788.309 498.801L790.074 494.755L790.956 486.9V477.855L790.074 470L789.191 474.284L785.662 479.283L780.147 482.853L768.676 487.614L755.882 491.422L747.279 497.611L740 508.798L738.456 516.177L739.118 526.174L742.426 533.553L748.382 544.503L749.265 549.977L748.382 554.5L745.515 556.88L742.426 555.452L740 552.119L737.353 546.645L734.265 542.122L731.397 539.028L728.529 537.6L732.5 543.074L735.147 547.835L736.471 554.5V562.117L732.5 568.543L724.559 573.066L714.853 575.446L708.897 578.064L702.5 584.015L698.309 590.918L696.544 600.677L698.309 609.722L692.353 601.867L690.147 592.346L691.471 584.015L694.338 579.492L701.176 573.066L696.544 575.446L686.618 581.397L678.235 588.061L669.853 599.011L666.103 608.056L665 620.433L666.103 629.002L669.853 638.523L676.25 647.806L685.515 655.661L700.515 664.944L707.353 670.895L710.882 676.37L710 682.558L704.706 688.985L702.059 693.984L700.515 697.792L697.868 695.888L695.221 688.985V682.558H693.897L691.691 686.605L689.265 693.984L686.838 704.933L685.515 713.264V716.834L686.838 727.545L689.265 733.02Z" fill="#FFB31C"/>
<path id="fire2" d="M711.624 754.238L729.018 777.095L806.083 789L859.587 736.143L866.413 731.857L875.44 722.095L885.789 710.19L891.294 695.905V686.381C890.339 683.603 888.387 677.905 888.211 677.333C888.035 676.762 887.55 672.651 887.33 670.667L889.312 664L893.275 660.667H899L897.018 658.762L891.294 655.667L884.688 653.524H878.963L872.138 660.667L870.817 673.762V692.81C870.817 694.143 865.092 704.952 862.229 710.19L855.624 714.238L837.128 707.81L834.486 697.095C835.147 693.048 836.6 684.429 837.128 682.333C837.789 679.714 840.651 673.762 841.312 672.571C841.84 671.619 844.468 668.841 845.716 667.571L852.321 654.238L851.44 636.143L849.679 630.429C848.358 626.937 845.716 619.762 845.716 619C845.716 618.238 841.899 611.222 839.991 607.81L833.165 596.619L829.422 592.333L831.844 598.762L831.183 607.81L830.083 614.952L826.339 625.19L822.376 633.048L819.073 639.714L811.367 651.857L809.606 650.905L812.468 644.952L816.651 637.81L819.734 625.19V616.143V609.476L817.972 605.19L816.651 600.905L814.229 595.905L811.367 591.381L807.624 586.857L805.862 580.19V573.286L807.624 567.333L810.046 560.667L814.229 553.524L810.046 555.19L804.541 560.667L800.358 567.333L797.495 577.333L793.532 587.571L791.33 594.952L788.688 598.762L781.862 600.905L777.239 598.762L775.917 586.857V580.19L776.578 569.952L777.239 559.714L778.56 552.333V542.333L776.578 537.095L773.275 531.381L769.092 526.857L764.248 524L766.89 528.048L769.092 532.81V539.714L767.771 543.762L762.927 549.952L758.083 554.238L752.578 557.333L749.055 562.571L747.734 567.333V573.286L749.936 579.476L753.239 586.857L754.339 593.286V596.619H751.037H745.532L741.349 594.952L736.945 591.381L736.064 584.714L738.706 578.286L733.642 582.571L729.899 587.571L725.936 594.952L726.596 607.81L729.018 612.81L727.697 616.143L725.936 625.19H724.615L718.229 621.143L716.468 613.762L718.229 606.381L714.706 609.476L710.743 614.952L707.661 623.048L707 633.048L709.422 641.381L714.046 648.762L721.092 655.19L726.596 657.81L736.945 665.19L741.349 673.762L743.33 683.524L738.927 694.238L734.303 695.19L732.101 691.143L729.018 683.524L722.413 675.667L718.229 673.762L721.092 680.429V688.048L719.991 698.524L712.945 717.333L707.22 734.238V741.619L711.624 754.238Z" fill="#F09500"/>
<path id="fire3" d="M744.118 730.931L732.911 763.888L764.115 788.547L805.428 790.918L849.598 794L881.242 760.094L883 746.816L879.704 736.858L875.309 733.302H867.618L860.805 736.858L846.302 739.94L835.754 729.271L834.435 723.58L838.83 720.024C843.738 718.68 853.554 715.851 853.554 715.282C853.554 714.713 861.318 710.777 865.2 708.88L873.771 704.849L878.166 699.87L883 692.283L881.901 678.531L879.704 668.81L876.847 663.83V671.418L871.573 675.686V671.418C871.207 667.071 870.474 658.092 870.474 656.954C870.474 655.532 867.837 647.233 867.618 646.285C867.398 645.336 861.465 639.646 860.805 638.697C860.278 637.939 857.802 634.746 856.63 633.244C855.824 631.979 854.081 629.45 853.554 629.45H850.257L852.455 634.43L848.719 636.801L844.983 634.43L841.248 622.1L840.588 612.853L838.83 615.698V622.1V628.028C840.295 633.639 843.225 645.147 843.225 646.285C843.225 647.423 844.397 652.291 844.983 654.583L847.181 663.83C846.961 665.964 846.478 670.469 846.302 671.418C846.126 672.366 845.35 675.765 844.983 677.345L841.248 678.531L832.677 677.345L830.919 673.314L827.843 666.438L832.677 659.8H830.919L827.843 662.408L826.305 666.438V682.799V692.283L827.843 704.849L826.305 712.911L818.613 720.024C814.951 722.316 807.362 726.9 806.307 726.9C805.253 726.9 798.982 728.48 795.979 729.271L784.772 730.931H778.179C779.278 730.456 781.739 729.461 782.794 729.271C783.849 729.081 787.482 727.611 789.167 726.9L795.1 723.58L800.154 712.911L804.769 701.293V692.283C805.282 689.358 806.307 683.131 806.307 681.613C806.307 679.716 806.307 677.345 807.626 675.686C808.681 674.358 809.237 672.287 809.384 671.418L814.218 667.861L818.613 664.779H814.218L809.384 666.438L804.769 671.418L794.221 677.345C792.17 677.345 787.409 677.013 784.772 675.686C782.135 674.358 784.406 672.287 785.871 671.418C790.119 669.363 799.363 664.684 802.352 662.408C805.34 660.132 807.113 654.82 807.626 652.449V644.862C807.626 643.36 807.055 639.646 804.769 636.801C802.484 633.955 802.205 631.663 802.352 630.873V619.492L800.154 628.028L794.221 635.852L785.871 636.801L789.167 634.43C789.973 633.086 791.98 629.925 793.562 628.028C795.144 626.131 795.247 623.286 795.1 622.1C795.1 619.966 795.276 614.94 795.979 611.905C796.682 608.87 795.686 605.582 795.1 604.317L791.584 596.967L788.068 594.122L783.673 589.617L776.861 586.535L774.004 583.452V575.865L775.762 572.309L776.861 564.721L775.762 555V557.371L774.004 566.618C772.246 568.199 768.51 571.55 767.631 572.309C766.752 573.067 764.042 576.576 762.797 578.236V581.318L764.115 586.535V590.565L760.819 594.122C759.427 595.07 756.424 596.967 755.545 596.967C754.666 596.967 753.128 598.39 752.469 599.101L749.612 602.658L748.733 606.926L747.634 615.698L744.118 611.668L740.822 606.688V602.658V595.545L739.503 596.967L735.987 602.658L731.592 606.688L727.637 615.698L725 622.1L727.637 634.43L732.911 644.862L742.8 658.377L744.118 662.408L739.503 666.438L737.306 671.418V677.345L740.822 681.613L749.612 684.695L759.501 689.912L764.115 699.87V703.427V708.88L759.501 712.911L754.007 717.179L749.612 723.58L744.118 730.931Z" fill="#D35D00"/>
<g id="embers2">
<path id="Vector 24" d="M864 552.5L861 555L864 547.5L861 544L859 539.5V536V530L865.5 524L864 530V536L865.5 539.5L867 547.5L864 552.5Z" fill="#F09600"/>
<path id="Vector 26" d="M682 559.5L679 562L682 554.5L679 551L677 546.5V543V537L683.5 531L682 537V543L683.5 546.5L685 554.5L682 559.5Z" fill="#F09600"/>
<path id="Vector 25" d="M776 457.5L773 460L776 452.5L773 449L771 444.5V441V435L777.5 429L776 435V441L777.5 444.5L779 452.5L776 457.5Z" fill="#F09600"/>
</g>
<g id="embers1">
<path id="Vector 23" d="M920 634.5L917 637L920 629.5L917 626L915 621.5V618V612L921.5 606L920 612V618L921.5 621.5L923 629.5L920 634.5Z" fill="#F09600"/>
<path id="Vector 27" d="M832 507.5L829 510L832 502.5L829 499L827 494.5V491V485L833.5 479L832 485V491L833.5 494.5L835 502.5L832 507.5Z" fill="#F09600"/>
<path id="Vector 28" d="M726 516.5L723 519L726 511.5L723 508L721 503.5V500V494L727.5 488L726 494V500L727.5 503.5L729 511.5L726 516.5Z" fill="#F09600"/>
</g>
<g id="rocks1">
<g id="Group 7">
<path id="Vector 18" d="M888.66 734.131L894.16 732.467L934.64 741.977V733.18L915.06 705.365L913.3 704.414L909.34 709.644L894.16 722.72L889.1 729.139L887.56 731.992L888.66 734.131Z" fill="#7C7E7F"/>
<path id="Vector 19" d="M910.88 709.882L915.06 705.365L917.04 706.316L922.32 710.595L926.94 715.35L931.12 718.916L934.42 726.048V733.418H930.68L926.94 730.803L921.88 727.237L918.58 724.384L915.5 722.72L912.64 721.769L909.56 718.916L909.12 714.399L910.88 709.882Z" fill="#989899"/>
</g>
<g id="Group 6">
<path id="Vector 17" d="M914.84 760.996L946.52 750.536L948.94 755.053L954 767.653V771.457L951.14 776.212L944.76 781.442L939.04 784.77L934.86 786.435L923.64 785.721L914.84 760.996Z" fill="#B0B0B1"/>
<path id="Vector 16" d="M925.18 762.423L923.64 761.947L905.16 749.347L898.56 729.852L902.74 728.901L912.86 731.278L925.18 736.509L935.52 742.215L946.3 750.06V753.388L944.1 756.479L934.86 758.143L928.48 759.807L925.18 762.423Z" fill="#CCCCCC"/>
<path id="Vector 15" d="M895.7 730.565L886.68 743.166L884.26 750.06L903.84 762.185L917.04 774.31L920.56 772.408L922.32 768.842L923.64 762.185L921.22 759.094L917.7 752.913L915.06 743.166L911.98 737.46L905.16 733.894L899.88 730.565V729.852L903.18 728.901H898.78L895.7 730.565Z" fill="#979798"/>
<path id="Vector 14" d="M920.34 781.917L921.88 787.861H930.24L934.86 786.435L930.24 785.959L924.52 784.533L922.54 779.54C922.173 777.638 921.44 773.739 921.44 773.359C921.44 772.978 922.173 770.03 922.54 768.604L919.9 771.695L916.38 772.646L908.9 766.464L902.3 759.094L891.96 753.626L888.66 751.249L886.68 748.158V743.166L880.08 754.339H887.56L894.82 758.143L901.2 763.611L909.78 769.555L915.94 775.736L920.34 781.917Z" fill="#88898B"/>
</g>
<g id="Group 1">
<path id="Vector 1" d="M655.9 798.559L684.06 807.356L686.04 798.559C686.407 797.767 687.184 795.897 687.36 794.756C687.536 793.614 689.193 790.952 690 789.763L693.74 781.68L700.34 776.925L705.18 772.408L710.46 770.268L716.62 768.604V766.464L713.98 759.57L702.32 745.543L693.74 734.845L690 733.18H680.1L669.54 734.845L659.2 737.935L645.12 742.69L636.98 745.543L630.6 749.347L626.2 756.004L624 759.57V766.464V776.925V781.68L633.02 792.616L638.52 796.182L648.86 797.371L655.9 798.559Z" fill="#7D7E7F"/>
<path id="Vector 3" d="M679.22 736.271L681.64 732.705L669.76 734.369L636.98 745.067L630.82 748.871L624.22 758.856V770.506L625.32 769.793L628.84 768.128L633.02 766.702H637.2L640.28 766.94L641.82 767.653L644.9 769.079L646.66 770.506H647.54H649.74L654.36 770.744L658.32 770.981L661.18 772.17L664.04 768.128L666.46 763.136L669.54 756.004L672.18 750.298V744.116L676.14 737.935L679.22 736.271Z" fill="#87888A" stroke="#87888A"/>
<path id="Vector 2" d="M714.2 762.898V759.332L693.96 734.607L690 732.705H681.64L680.76 734.607L679.44 736.271L676.14 738.173L673.94 741.264L672.4 744.116V750.298L671.96 754.102L670.86 757.668L669.54 761.472L667.34 767.177L665.8 770.981L665.36 773.121L667.34 779.065L669.1 785.721L671.3 791.189L673.06 796.182L674.38 797.371H676.8L679.88 794.756L681.86 792.14L685.16 787.148L687.14 783.582L690 780.016L692.64 777.4L695.72 774.785L698.58 772.408L702.98 769.555L708.7 767.177L711.78 765.751L714.2 762.898Z" fill="#959698" stroke="#959698"/>
</g>
<g id="Group 2">
<path id="Vector 4" d="M699.68 777.4L703.2 773.359L705.18 772.17L708.26 770.981L713.98 771.457V773.834L712.88 778.351V781.442L713.98 782.868L716.84 785.008L721.9 788.336L734.44 795.706L745.22 801.175L752.04 806.167V812.586V821.858V832.556H744.56L737.96 831.368L731.14 829.941L723.88 828.277L713.98 826.375L706.5 823.998L696.16 820.669L687.8 815.677C686.92 814.567 685.072 812.111 684.72 811.16C684.368 810.209 683.987 807.197 684.28 806.167L685.6 799.035L687.36 793.567L689.12 790.714L690.44 788.099L691.76 784.533L693.74 781.442L696.38 779.54L699.68 777.4Z" fill="#A8A8AA"/>
<path id="Vector 5" d="M752.7 799.51L752.04 806.167L745.22 801.175L734.22 795.469L722.56 788.812L713.98 783.106L712.88 781.442V778.114L713.98 773.834L713.76 771.457L708.48 770.981L716.84 768.128L724.1 764.325L730.26 760.521L736.86 757.192L740.38 756.004L743.46 754.815H747.64L749.62 755.528L751.82 756.004L757.32 759.094L759.96 760.996L759.52 761.472L757.32 760.521H754.46L752.92 762.66V767.177L753.58 770.744L754.02 774.072L754.68 777.876L755.12 783.106V787.861L754.02 792.14L753.36 795.231L752.7 799.51Z" fill="#B2B2B2" stroke="#B2B2B2"/>
<path id="Vector 6" d="M763.92 763.611L759.96 760.996L759.52 761.472L757.32 760.758H754.46L752.92 762.898V767.177L753.58 770.506L754.24 775.023L754.68 778.351L755.12 782.155V787.861L754.24 791.665L752.92 798.797L752.04 806.167V832.556L759.52 833.27L765.9 832.556L771.4 830.417L776.68 827.564L781.74 823.047L784.16 819.718V815.677L785.92 812.348V800.224L786.58 796.182L787.46 791.665L789 789.287L786.58 784.77L783.06 780.966L779.76 777.638L774.7 772.646L769.86 767.891L763.92 763.611Z" fill="#CCCCCC"/>
</g>
<g id="Group 5">
<path id="Vector 11" d="M853.68 816.39V818.767L858.74 820.432H877.66L889.1 816.39L905.16 809.496L912.2 804.978L916.82 800.699L920.78 794.28L921.88 790.952V787.861L921.44 782.155L919.02 777.876L915.94 774.072L910.66 768.842L904.28 764.087L899 760.283L891.74 756.479L887.34 754.102H878.1H872.6L867.32 755.766L861.38 758.856L855.88 763.611L850.6 770.268L847.52 777.638L843.34 790.238L848.84 797.371L852.36 803.552L853.68 809.258V816.39Z" fill="#7D7E7F"/>
<path id="Vector 13" d="M878.76 755.053L891.3 756.479L899 760.283L901.42 762.185L910.66 768.604L915.94 774.31L918.8 777.876L921.44 781.917V788.574L919.46 792.378L914.4 797.133L908.46 799.748L898.56 803.076L893.28 803.552H886.9L881.62 799.748L873.48 792.378L869.96 786.672L867.98 771.457L869.3 758.856L878.76 755.053Z" fill="#9D9DA0"/>
<path id="Vector 12" d="M848.84 797.371L843.34 790.238L850.38 770.268L855.88 763.611L861.38 758.856L867.1 755.766L872.38 754.102H887.34L891.52 756.479L883.6 756.004L878.54 756.717L874.8 759.332L872.38 761.472L869.74 765.989L868.42 769.555L867.32 774.547L866.44 782.393V787.623L862.92 793.805L858.52 800.699L853.46 808.069L852.36 803.552L848.84 797.371Z" fill="#868789"/>
</g>
<g id="Group 4">
<g id="Group 3">
<path id="Vector 7" d="M787.46 791.427L789 789.287L792.96 783.582L795.82 780.491L800.44 775.974L805.72 772.646L809.9 771.219H813.86L815.18 771.695L820.02 773.359L826.62 775.974L832.56 780.491L838.06 785.008L843.34 790.001L846.2 794.042L849.06 797.846L852.36 803.79L853.68 809.258V819.005L850.38 824.473L845.32 828.753L838.72 831.843L827.5 834.934L808.58 837.549L801.76 838.5L795.82 837.549L790.98 834.458L786.36 829.466L784.38 824.473V819.718L783.94 815.915L785.92 812.348V800.224L787.46 791.427Z" fill="#A7A9AB"/>
<path id="Vector 8" d="M849.72 800.461L849.06 797.846L843.12 789.763L826.4 775.974L813.64 771.219H809.9L804.4 773.359L805.06 774.072L808.36 777.638L811.22 780.966L813.64 786.91L815.4 790.714L817.6 795.944L819.36 800.461L820.68 803.076L822.22 808.069L822.88 812.824L823.76 815.677L825.74 818.054L829.26 818.767H833.44L837.62 817.341L843.12 813.775L846.86 809.496L849.72 805.454V800.461Z" fill="#CCCCCC"/>
<path id="Vector 10" d="M811.44 781.442L804.18 773.359L800.22 775.974L792.96 783.582L787.24 791.427L785.92 800.224V812.348L783.94 815.915L784.38 819.718V824.473L786.36 829.466L789.66 832.794L791.2 833.983L793.84 834.458L797.58 834.934H801.98L805.94 834.458L809.46 832.794L812.76 830.655C813.933 828.911 816.368 825.329 816.72 824.949C817.072 824.568 818.04 821.303 818.48 819.718L819.58 813.775L819.14 808.782L818.48 803.79L816.72 794.042L811.44 781.442Z" fill="#B2B2B2"/>
</g>
<path id="Vector 9" d="M790.54 790.238V788.574C791.713 787.148 794.148 784.2 794.5 783.819C794.94 783.344 796.48 781.442 796.7 780.966C796.876 780.586 798.533 779.382 799.34 778.827L802.2 776.687L804.4 775.974L804.84 778.351L804.4 783.819L803.52 786.435L802.2 789.287L800.22 791.189H791.86L790.54 790.238Z" fill="#CCCCCC"/>
</g>
</g>
<path id="tail4" d="M1304.76 716.506C1324.45 718.885 1332.48 717.16 1339.76 697.506C1339.38 696.878 1340.57 696.701 1340.26 696.006C1339.31 693.896 1337.07 691.115 1336.26 689.506C1329.71 676.568 1330.86 671.514 1340.76 668.506C1352 666.175 1358.2 670.718 1363.26 686.006C1367.73 706.335 1365.1 714.758 1354.76 726.506C1342.2 740.413 1333.65 744.388 1315.26 743.506H1257.76C1250.96 742.953 1247.86 741.885 1243.26 739.006" stroke="white" stroke-width="6"/>
<g id="cat4">
<path id="Vector 29" d="M1295.76 713.506C1300.76 648.506 1272.26 621.006 1263.76 614.506C1256.96 609.306 1260.92 596.672 1263.76 591.006C1265.76 576.606 1264.59 569.006 1263.76 567.006" stroke="white" stroke-width="6"/>
<path id="Vector 30" d="M1260.76 554.506V529.506C1260.76 529.839 1260.76 529.706 1260.76 526.506C1260.76 523.306 1255.42 523.839 1252.76 524.506L1229.76 542.506H1209.26H1203.26C1198.06 535.306 1184.09 527.506 1177.76 524.506C1168.16 526.106 1167.42 556.839 1168.26 572.006V590.506L1170.76 670.506L1175.26 700.506L1181.76 728.506L1183.76 743.506" stroke="white" stroke-width="6"/>
<path id="Line 1" d="M1246.76 658.006C1247.76 689.506 1230.26 710.006 1227.26 743.006" stroke="white" stroke-width="6"/>
<line id="Line 2" y1="-3" x2="56.0089" y2="-3" transform="matrix(-0.0178543 0.999841 0.999841 0.0178543 1211.26 685.006)" stroke="white" stroke-width="6"/>
<ellipse id="Ellipse 1" rx="5.5" ry="8" transform="matrix(-1 0 0 1 1234.76 575.006)" fill="white"/>
<ellipse id="Ellipse 2" rx="5.5" ry="8" transform="matrix(-1 0 0 1 1199.76 575.006)" fill="white"/>
</g>
<path id="tail3" d="M945.597 940.506C925.907 942.885 917.873 941.16 910.597 921.506C910.975 920.878 909.784 920.701 910.097 920.006C911.046 917.896 913.284 915.115 914.097 913.506C920.639 900.568 919.495 895.514 909.597 892.506C898.352 890.175 892.15 894.718 887.097 910.006C882.619 930.335 885.248 938.758 895.597 950.506C908.158 964.413 916.705 968.388 935.097 967.506H992.597C999.392 966.953 1002.49 965.885 1007.1 963.006" stroke="white" stroke-width="6"/>
<g id="cat3">
<path id="Vector 29_2" d="M954.597 937.506C949.597 872.506 978.097 845.006 986.597 838.506C993.397 833.306 989.431 820.672 986.597 815.006C984.597 800.606 985.764 793.006 986.597 791.006" stroke="white" stroke-width="6"/>
<path id="Vector 30_2" d="M989.597 778.506V753.506C989.597 753.839 989.597 753.706 989.597 750.506C989.597 747.306 994.931 747.839 997.597 748.506L1020.6 766.506H1041.1H1047.1C1052.3 759.306 1066.26 751.506 1072.6 748.506C1082.2 750.106 1082.93 780.839 1082.1 796.006V814.506L1079.6 894.506L1075.1 924.506L1068.6 952.506L1066.6 967.506" stroke="white" stroke-width="6"/>
<path id="Line 1_2" d="M1003.6 882.006C1002.6 913.506 1020.1 934.006 1023.1 967.006" stroke="white" stroke-width="6"/>
<line id="Line 2_2" x1="1042.1" y1="908.952" x2="1043.1" y2="964.952" stroke="white" stroke-width="6"/>
<ellipse id="Ellipse 1_2" cx="1015.6" cy="799.006" rx="5.5" ry="8" fill="white"/>
<ellipse id="Ellipse 2_2" cx="1050.6" cy="799.006" rx="5.5" ry="8" fill="white"/>
</g>
<path id="tail2" d="M532.755 766.506C552.445 768.885 560.48 767.16 567.755 747.506C567.378 746.878 568.568 746.701 568.255 746.006C567.306 743.896 565.069 741.115 564.255 739.506C557.713 726.568 558.858 721.514 568.755 718.506C580.001 716.175 586.202 720.718 591.255 736.006C595.733 756.335 593.104 764.758 582.755 776.506C570.195 790.413 561.648 794.388 543.255 793.506H485.755C478.96 792.953 475.862 791.885 471.255 789.006" stroke="white" stroke-width="6"/>
<g id="cat2">
<path id="Vector 29_3" d="M523.755 763.506C528.755 698.506 500.255 671.006 491.755 664.506C484.955 659.306 488.922 646.672 491.755 641.006C493.755 626.606 492.589 619.006 491.755 617.006" stroke="white" stroke-width="6"/>
<path id="Vector 30_3" d="M488.755 604.506V579.506C488.755 579.839 488.755 579.706 488.755 576.506C488.755 573.306 483.422 573.839 480.755 574.506L457.755 592.506H437.255H431.255C426.055 585.306 412.089 577.506 405.755 574.506C396.155 576.106 395.422 606.839 396.255 622.006V640.506L398.755 720.506L403.255 750.506L409.755 778.506L411.755 793.506" stroke="white" stroke-width="6"/>
<path id="Line 1_3" d="M474.755 708.006C475.755 739.506 458.255 760.006 455.255 793.006" stroke="white" stroke-width="6"/>
<line id="Line 2_3" y1="-3" x2="56.0089" y2="-3" transform="matrix(-0.0178543 0.999841 0.999841 0.0178543 439.255 735.006)" stroke="white" stroke-width="6"/>
<ellipse id="Ellipse 1_3" rx="5.5" ry="8" transform="matrix(-1 0 0 1 462.755 625.006)" fill="white"/>
<ellipse id="Ellipse 2_3" rx="5.5" ry="8" transform="matrix(-1 0 0 1 427.755 625.006)" fill="white"/>
</g>
<path id="tail1" d="M144.597 933.506C124.907 935.885 116.873 934.16 109.597 914.506C109.975 913.878 108.784 913.701 109.097 913.006C110.046 910.896 112.284 908.115 113.097 906.506C119.639 893.568 118.495 888.514 108.597 885.506C97.3516 883.175 91.1505 887.718 86.0973 903.006C81.6194 923.335 84.2484 931.758 94.5973 943.506C107.158 957.413 115.705 961.388 134.097 960.506H191.597C198.392 959.953 201.49 958.885 206.097 956.006" stroke="white" stroke-width="6"/>
<g id="cat1">
<g id="Group 12">
<path id="Vector 29_4" d="M153.597 930.506C148.597 865.506 177.097 838.006 185.597 831.506C192.397 826.306 188.431 813.672 185.597 808.006C183.597 793.606 184.764 786.006 185.597 784.006" stroke="white" stroke-width="6"/>
<path id="Vector 30_4" d="M188.597 771.506V746.506C188.597 746.839 188.597 746.706 188.597 743.506C188.597 740.306 193.931 740.839 196.597 741.506L219.597 759.506H240.097H246.097C251.297 752.306 265.264 744.506 271.597 741.506C281.197 743.106 281.931 773.839 281.097 789.006V807.506L278.597 887.506L274.097 917.506L267.597 945.506L265.597 960.506" stroke="white" stroke-width="6"/>
<path id="Line 1_4" d="M202.597 875.006C201.597 906.506 219.097 927.006 222.097 960.006" stroke="white" stroke-width="6"/>
<line id="Line 2_4" x1="241.097" y1="901.952" x2="242.097" y2="957.952" stroke="white" stroke-width="6"/>
</g>
<ellipse id="Ellipse 1_4" cx="214.597" cy="792.006" rx="5.5" ry="8" fill="white"/>
<ellipse id="Ellipse 2_4" cx="249.597" cy="792.006" rx="5.5" ry="8" fill="white"/>
</g>
<g id="television-svgrepo-com 1" clip-path="url(#clip1)">
<g id="Group 13">
<rect id="Rectangle 2" x="341" y="555" width="172" height="92" fill="#1F391E"/>
<g id="Group">
<g id="Group_2">
<g id="Group_3">
<path id="Vector" d="M511.337 521.763H459.934C459.041 519.354 456.875 514.754 454.348 514.754H450.878L478.876 484.461C480.942 482.226 480.942 478.591 478.876 476.356C476.831 474.121 473.471 474.121 471.416 476.356L441.933 508.255L404.429 467.665C402.363 465.441 399.004 465.441 396.938 467.665C394.872 469.911 394.872 473.535 396.938 475.77L432.968 514.754H430.642C428.105 514.754 425.949 519.354 425.056 521.763H373.663C361.138 521.763 351 531.832 351 544.244V635.513C351 647.947 361.138 658.005 373.663 658.005H511.337C523.852 658.005 534 647.947 534 635.513V544.244C534 531.821 523.862 521.763 511.337 521.763ZM521.214 635.513C521.214 640.928 516.782 645.322 511.347 645.322H373.663C368.218 645.322 363.786 640.928 363.786 635.513V544.244C363.786 538.852 368.218 534.447 373.663 534.447H511.337C516.772 534.447 521.204 538.852 521.204 544.244V635.513H521.214Z" fill="white"/>
</g>
<g id="Group_4">
<path id="Vector_2" d="M450.277 637.39H391.583C380.462 637.39 372.701 627.897 372.701 614.28V565.477C372.701 545.383 382.989 542.389 389.126 542.389H452.734C458.871 542.389 469.169 545.394 469.169 565.477V614.28C469.159 627.897 461.398 637.39 450.277 637.39ZM389.126 548.443C386.439 548.443 378.296 548.443 378.296 565.488V614.291C378.296 622.786 382.408 631.325 391.583 631.325H450.277C459.452 631.325 463.574 622.786 463.574 614.291V565.488C463.574 548.443 455.421 548.443 452.734 548.443C452.734 548.443 389.126 548.443 389.126 548.443Z" fill="white"/>
</g>
<g id="Group_5">
<path id="Vector_3" d="M495.302 553.651C486.277 553.651 478.927 561.604 478.927 571.38C478.927 581.155 486.267 589.108 495.302 589.108C504.338 589.108 511.688 581.166 511.688 571.38C511.688 561.604 504.327 553.651 495.302 553.651ZM495.302 582.305C489.727 582.305 485.204 577.412 485.204 571.38C485.204 565.347 489.727 560.465 495.302 560.465C500.878 560.465 505.41 565.358 505.41 571.38C505.41 577.401 500.878 582.305 495.302 582.305Z" fill="white"/>
</g>
<g id="Group_6">
<path id="Vector_4" d="M495.302 597.756C486.277 597.756 478.927 605.709 478.927 615.506C478.927 625.26 486.267 633.213 495.302 633.213C504.338 633.213 511.688 625.271 511.688 615.506C511.688 605.72 504.327 597.756 495.302 597.756ZM495.302 626.432C489.727 626.432 485.204 621.528 485.204 615.506C485.204 609.474 489.727 604.569 495.302 604.569C500.878 604.569 505.41 609.474 505.41 615.506C505.41 621.528 500.878 626.432 495.302 626.432Z" fill="white"/>
</g>
</g>
</g>
</g>
</g>
<g id="television-svgrepo-com 2" clip-path="url(#clip2)">
<g id="Group 13_2">
<rect id="Rectangle 2_2" x="138" y="719" width="172" height="92" fill="#1F391E"/>
<g id="Group_7">
<g id="Group_8">
<g id="Group_9">
<path id="Vector_5" d="M308.337 685.763H256.934C256.041 683.354 253.875 678.754 251.348 678.754H247.878L275.876 648.461C277.942 646.226 277.942 642.591 275.876 640.356C273.831 638.121 270.471 638.121 268.416 640.356L238.933 672.255L201.429 631.665C199.363 629.441 196.004 629.441 193.938 631.665C191.872 633.911 191.872 637.535 193.938 639.77L229.968 678.754H227.642C225.105 678.754 222.949 683.354 222.056 685.763H170.663C158.138 685.763 148 695.832 148 708.244V799.513C148 811.947 158.138 822.005 170.663 822.005H308.337C320.852 822.005 331 811.947 331 799.513V708.244C331 695.821 320.862 685.763 308.337 685.763ZM318.214 799.513C318.214 804.928 313.782 809.322 308.347 809.322H170.663C165.218 809.322 160.786 804.928 160.786 799.513V708.244C160.786 702.852 165.218 698.447 170.663 698.447H308.337C313.772 698.447 318.204 702.852 318.204 708.244V799.513H318.214Z" fill="white"/>
</g>
<g id="Group_10">
<path id="Vector_6" d="M247.277 801.39H188.583C177.462 801.39 169.701 791.897 169.701 778.28V729.477C169.701 709.383 179.989 706.389 186.126 706.389H249.734C255.871 706.389 266.169 709.394 266.169 729.477V778.28C266.159 791.897 258.398 801.39 247.277 801.39ZM186.126 712.443C183.439 712.443 175.296 712.443 175.296 729.488V778.291C175.296 786.786 179.408 795.325 188.583 795.325H247.277C256.452 795.325 260.574 786.786 260.574 778.291V729.488C260.574 712.443 252.421 712.443 249.734 712.443C249.734 712.443 186.126 712.443 186.126 712.443Z" fill="white"/>
</g>
<g id="Group_11">
<path id="Vector_7" d="M292.302 717.651C283.277 717.651 275.927 725.604 275.927 735.38C275.927 745.155 283.267 753.108 292.302 753.108C301.338 753.108 308.688 745.166 308.688 735.38C308.688 725.604 301.327 717.651 292.302 717.651ZM292.302 746.305C286.727 746.305 282.204 741.412 282.204 735.38C282.204 729.347 286.727 724.465 292.302 724.465C297.878 724.465 302.41 729.358 302.41 735.38C302.41 741.401 297.878 746.305 292.302 746.305Z" fill="white"/>
</g>
<g id="Group_12">
<path id="Vector_8" d="M292.302 761.756C283.277 761.756 275.927 769.709 275.927 779.506C275.927 789.26 283.267 797.213 292.302 797.213C301.338 797.213 308.688 789.271 308.688 779.506C308.688 769.72 301.327 761.756 292.302 761.756ZM292.302 790.432C286.727 790.432 282.204 785.528 282.204 779.506C282.204 773.474 286.727 768.569 292.302 768.569C297.878 768.569 302.41 773.474 302.41 779.506C302.41 785.528 297.878 790.432 292.302 790.432Z" fill="white"/>
</g>
</g>
</g>
</g>
</g>
<g id="television-svgrepo-com 3" clip-path="url(#clip3)">
<g id="Group 13_3">
<rect id="Rectangle 2_3" x="939" y="732" width="172" height="92" fill="#1F391E"/>
<g id="Group_13">
<g id="Group_14">
<g id="Group_15">
<path id="Vector_9" d="M1109.34 698.763H1057.93C1057.04 696.354 1054.88 691.754 1052.35 691.754H1048.88L1076.88 661.461C1078.94 659.226 1078.94 655.591 1076.88 653.356C1074.83 651.121 1071.47 651.121 1069.42 653.356L1039.93 685.255L1002.43 644.665C1000.36 642.441 997.004 642.441 994.938 644.665C992.872 646.911 992.872 650.535 994.938 652.77L1030.97 691.754H1028.64C1026.1 691.754 1023.95 696.354 1023.06 698.763H971.663C959.138 698.763 949 708.832 949 721.244V812.513C949 824.947 959.138 835.005 971.663 835.005H1109.34C1121.85 835.005 1132 824.947 1132 812.513V721.244C1132 708.821 1121.86 698.763 1109.34 698.763ZM1119.21 812.513C1119.21 817.928 1114.78 822.322 1109.35 822.322H971.663C966.218 822.322 961.786 817.928 961.786 812.513V721.244C961.786 715.852 966.218 711.447 971.663 711.447H1109.34C1114.77 711.447 1119.2 715.852 1119.2 721.244V812.513H1119.21Z" fill="white"/>
</g>
<g id="Group_16">
<path id="Vector_10" d="M1048.28 814.39H989.583C978.462 814.39 970.7 804.897 970.7 791.28V742.477C970.7 722.383 980.989 719.389 987.126 719.389H1050.73C1056.87 719.389 1067.17 722.394 1067.17 742.477V791.28C1067.16 804.897 1059.4 814.39 1048.28 814.39ZM987.126 725.443C984.439 725.443 976.296 725.443 976.296 742.488V791.291C976.296 799.786 980.408 808.325 989.583 808.325H1048.28C1057.45 808.325 1061.57 799.786 1061.57 791.291V742.488C1061.57 725.443 1053.42 725.443 1050.73 725.443C1050.73 725.443 987.126 725.443 987.126 725.443Z" fill="white"/>
</g>
<g id="Group_17">
<path id="Vector_11" d="M1093.3 730.651C1084.28 730.651 1076.93 738.604 1076.93 748.38C1076.93 758.155 1084.27 766.108 1093.3 766.108C1102.34 766.108 1109.69 758.166 1109.69 748.38C1109.69 738.604 1102.33 730.651 1093.3 730.651ZM1093.3 759.305C1087.73 759.305 1083.2 754.412 1083.2 748.38C1083.2 742.347 1087.73 737.465 1093.3 737.465C1098.88 737.465 1103.41 742.358 1103.41 748.38C1103.41 754.401 1098.88 759.305 1093.3 759.305Z" fill="white"/>
</g>
<g id="Group_18">
<path id="Vector_12" d="M1093.3 774.756C1084.28 774.756 1076.93 782.709 1076.93 792.506C1076.93 802.26 1084.27 810.213 1093.3 810.213C1102.34 810.213 1109.69 802.271 1109.69 792.506C1109.69 782.72 1102.33 774.756 1093.3 774.756ZM1093.3 803.432C1087.73 803.432 1083.2 798.528 1083.2 792.506C1083.2 786.474 1087.73 781.569 1093.3 781.569C1098.88 781.569 1103.41 786.474 1103.41 792.506C1103.41 798.528 1098.88 803.432 1093.3 803.432Z" fill="white"/>
</g>
</g>
</g>
</g>
</g>
<g id="television-svgrepo-com 4" clip-path="url(#clip4)">
<g id="Group 13_4">
<rect id="Rectangle 2_4" x="1122" y="521" width="172" height="92" fill="#1F391E"/>
<g id="Group_19">
<g id="Group_20">
<g id="Group_21">
<path id="Vector_13" d="M1292.34 487.763H1240.93C1240.04 485.354 1237.88 480.754 1235.35 480.754H1231.88L1259.88 450.461C1261.94 448.226 1261.94 444.591 1259.88 442.356C1257.83 440.121 1254.47 440.121 1252.42 442.356L1222.93 474.255L1185.43 433.665C1183.36 431.441 1180 431.441 1177.94 433.665C1175.87 435.911 1175.87 439.535 1177.94 441.77L1213.97 480.754H1211.64C1209.1 480.754 1206.95 485.354 1206.06 487.763H1154.66C1142.14 487.763 1132 497.832 1132 510.244V601.513C1132 613.947 1142.14 624.005 1154.66 624.005H1292.34C1304.85 624.005 1315 613.947 1315 601.513V510.244C1315 497.821 1304.86 487.763 1292.34 487.763ZM1302.21 601.513C1302.21 606.928 1297.78 611.322 1292.35 611.322H1154.66C1149.22 611.322 1144.79 606.928 1144.79 601.513V510.244C1144.79 504.852 1149.22 500.447 1154.66 500.447H1292.34C1297.77 500.447 1302.2 504.852 1302.2 510.244V601.513H1302.21Z" fill="white"/>
</g>
<g id="Group_22">
<path id="Vector_14" d="M1231.28 603.39H1172.58C1161.46 603.39 1153.7 593.897 1153.7 580.28V531.477C1153.7 511.383 1163.99 508.389 1170.13 508.389H1233.73C1239.87 508.389 1250.17 511.394 1250.17 531.477V580.28C1250.16 593.897 1242.4 603.39 1231.28 603.39ZM1170.13 514.443C1167.44 514.443 1159.3 514.443 1159.3 531.488V580.291C1159.3 588.786 1163.41 597.325 1172.58 597.325H1231.28C1240.45 597.325 1244.57 588.786 1244.57 580.291V531.488C1244.57 514.443 1236.42 514.443 1233.73 514.443C1233.73 514.443 1170.13 514.443 1170.13 514.443Z" fill="white"/>
</g>
<g id="Group_23">
<path id="Vector_15" d="M1276.3 519.651C1267.28 519.651 1259.93 527.604 1259.93 537.38C1259.93 547.155 1267.27 555.108 1276.3 555.108C1285.34 555.108 1292.69 547.166 1292.69 537.38C1292.69 527.604 1285.33 519.651 1276.3 519.651ZM1276.3 548.305C1270.73 548.305 1266.2 543.412 1266.2 537.38C1266.2 531.347 1270.73 526.465 1276.3 526.465C1281.88 526.465 1286.41 531.358 1286.41 537.38C1286.41 543.401 1281.88 548.305 1276.3 548.305Z" fill="white"/>
</g>
<g id="Group_24">
<path id="Vector_16" d="M1276.3 563.756C1267.28 563.756 1259.93 571.709 1259.93 581.506C1259.93 591.26 1267.27 599.213 1276.3 599.213C1285.34 599.213 1292.69 591.271 1292.69 581.506C1292.69 571.719 1285.33 563.756 1276.3 563.756ZM1276.3 592.432C1270.73 592.432 1266.2 587.528 1266.2 581.506C1266.2 575.474 1270.73 570.569 1276.3 570.569C1281.88 570.569 1286.41 575.474 1286.41 581.506C1286.41 587.528 1281.88 592.432 1276.3 592.432Z" fill="white"/>
</g>
</g>
</g>
</g>
</g>
</g>
<defs>
<clipPath id="clip0">
<rect width="1440" height="1024" fill="white"/>
</clipPath>
<clipPath id="clip1">
<rect width="183" height="198" fill="white" transform="translate(351 463)"/>
</clipPath>
<clipPath id="clip2">
<rect width="183" height="198" fill="white" transform="translate(148 627)"/>
</clipPath>
<clipPath id="clip3">
<rect width="183" height="198" fill="white" transform="translate(949 640)"/>
</clipPath>
<clipPath id="clip4">
<rect width="183" height="198" fill="white" transform="translate(1132 429)"/>
</clipPath>
</defs>
</svg>
